<?xml version="1.0" standalone="no"?>
<!DOCTYPE svg PUBLIC "-//W3C//DTD SVG 20010904//EN"
 "http://www.w3.org/TR/2001/REC-SVG-20010904/DTD/svg10.dtd">
<svg version="1.0" xmlns="http://www.w3.org/2000/svg"
 width="396.000000pt" height="396.000000pt" viewBox="0 0 396.000000 396.000000"
 preserveAspectRatio="xMidYMid meet">

<g transform="translate(0.000000,396.000000) scale(0.100000,-0.100000)"
fill="#000000" stroke="none">
<path d="M1260 3285 l0 -45 -90 0 -90 0 0 -90 0 -90 -45 0 -45 0 0 -360 0
-360 -45 0 -45 0 0 -360 0 -360 45 0 45 0 0 -45 0 -45 90 0 90 0 0 -180 0
-180 45 0 45 0 0 -45 0 -45 180 0 180 0 0 -180 0 -180 -450 0 -450 0 0 -45 0
-45 -45 0 -45 0 0 -45 0 -45 -45 0 -45 0 0 -270 0 -270 270 0 270 0 0 135 0
135 45 0 45 0 0 -45 0 -45 45 0 45 0 0 45 0 45 45 0 45 0 0 -135 0 -135 45 0
45 0 0 135 0 135 135 0 135 0 0 -45 0 -45 -90 0 -90 0 0 -45 0 -45 45 0 45 0
0 -45 0 -45 90 0 90 0 0 135 0 135 135 0 135 0 0 -90 0 -90 -45 0 -45 0 0 45
0 45 -45 0 -45 0 0 -45 0 -45 45 0 45 0 0 -45 0 -45 90 0 90 0 0 135 0 135
135 0 135 0 0 -45 0 -45 -90 0 -90 0 0 -45 0 -45 45 0 45 0 0 -45 0 -45 90 0
90 0 0 90 0 90 45 0 45 0 0 -45 0 -45 45 0 45 0 0 45 0 45 45 0 45 0 0 -90 0
-90 270 0 270 0 0 270 0 270 -45 0 -45 0 0 45 0 45 -45 0 -45 0 0 45 0 45
-450 0 -450 0 0 180 0 180 180 0 180 0 0 45 0 45 45 0 45 0 0 180 0 180 90 0
90 0 0 45 0 45 45 0 45 0 0 360 0 360 -45 0 -45 0 0 360 0 360 -45 0 -45 0 0
90 0 90 -45 0 -45 0 0 45 0 45 -720 0 -720 0 0 -45z m990 -1800 l0 -45 -45 0
-45 0 0 -45 0 -45 -225 0 -225 0 0 45 0 45 -45 0 -45 0 0 45 0 45 315 0 315 0
0 -45z m450 -1260 l0 -45 -45 0 -45 0 0 45 0 45 45 0 45 0 0 -45z"/>
<path d="M1170 45 l0 -45 45 0 45 0 0 45 0 45 -45 0 -45 0 0 -45z"/>
</g>
</svg>
